HIERARCHY
ROOT Hips
{
  OFFSET -35.4901 99.2528 17.4586
  CHANNELS 6 Xposition Yposition Zposition Zrotation Xrotation Yrotation
  JOINT LeftUpLeg
  {
    OFFSET 8.64259 1.95398 -2.38835
    CHANNELS 3 Zrotation Xrotation Yrotation
    JOINT LeftLeg
    {
      OFFSET 43.7702 0 0
      CHANNELS 3 Zrotation Xrotation Yrotation
      JOINT LeftFoot
      {
        OFFSET 40.6238 0 0
        CHANNELS 3 Zrotation Xrotation Yrotation
        JOINT LeftToeBase
        {
          OFFSET 12.7242 0 0
          CHANNELS 3 Zrotation Xrotation Yrotation
          End Site
          {
            OFFSET 0 0 0
          }
        }
      }
    }
  }
  JOINT RightUpLeg
  {
    OFFSET -8.2249 1.95398 -2.59336
    CHANNELS 3 Zrotation Xrotation Yrotation
    JOINT RightLeg
    {
      OFFSET 43.5653 0 0
      CHANNELS 3 Zrotation Xrotation Yrotation
      JOINT RightFoot
      {
        OFFSET 40.6238 0 0
        CHANNELS 3 Zrotation Xrotation Yrotation
        JOINT RightToeBase
        {
          OFFSET 12.7242 0 0
          CHANNELS 3 Zrotation Xrotation Yrotation
          End Site
          {
            OFFSET 0 0 0
          }
        }
      }
    }
  }
  JOINT Spine
  {
    OFFSET 0.165834 0.87714 6.61349
    CHANNELS 3 Zrotation Xrotation Yrotation
    JOINT Spine1
    {
      OFFSET 7.38963 1.71661e-005 0
      CHANNELS 3 Zrotation Xrotation Yrotation
      JOINT Spine2
      {
        OFFSET 11.9445 1.14441e-005 0
        CHANNELS 3 Zrotation Xrotation Yrotation
        JOINT Spine3
        {
          OFFSET 14.7254 4.19617e-005 0
          CHANNELS 3 Zrotation Xrotation Yrotation
          JOINT Spine4
          {
            OFFSET 10.9679 0 0
            CHANNELS 3 Zrotation Xrotation Yrotation
            JOINT RightShoulder
            {
              OFFSET 2.46616 -1.6653 3.69651
              CHANNELS 3 Zrotation Xrotation Yrotation
              JOINT RightArm
              {
                OFFSET 13.0012 0 0
                CHANNELS 3 Zrotation Xrotation Yrotation
                JOINT RightForeArm
                {
                  OFFSET 28.7848 1.52588e-005 0
                  CHANNELS 3 Zrotation Xrotation Yrotation
                  JOINT RightHand
                  {
                    OFFSET 26.5688 1.52588e-005 0
                    CHANNELS 3 Zrotation Xrotation Yrotation
                    End Site
                    {
                      OFFSET 0 0 0
                    }
                  }
                }
              }
            }
            JOINT LeftShoulder
            {
              OFFSET 2.38034 -1.29275 -3.7523
              CHANNELS 3 Zrotation Xrotation Yrotation
              JOINT LeftArm
              {
                OFFSET 16.3182 6.10351e-005 0
                CHANNELS 3 Zrotation Xrotation Yrotation
                JOINT LeftForeArm
                {
                  OFFSET 27.0901 0 0
                  CHANNELS 3 Zrotation Xrotation Yrotation
                  JOINT LeftHand
                  {
                    OFFSET 24.5451 1.52588e-005 0
                    CHANNELS 3 Zrotation Xrotation Yrotation
                    End Site
                    {
                      OFFSET 0 0 0
                    }
                  }
                }
              }
            }
            JOINT Neck
            {
              OFFSET 5.0226 -0.0266342 0
              CHANNELS 3 Zrotation Xrotation Yrotation
              JOINT Head
              {
                OFFSET 6.69364 2.86102e-005 0
                CHANNELS 3 Zrotation Xrotation Yrotation
                End Site
                {
                  OFFSET 0 0 0
                }
              }
            }
          }
        }
      }
    }
  }
}
MOTION
Frames:	17
Frame Time:	0.0416667
-235.146 96.0593 -201.828 97.6797 -33.8487 96.0388 -173.754 14.4289 96.241 -67.1793 10.067 5.19227 64.392 3.17478 4.63077 20.763 4.84126 -6.19669 172.567 5.39153 94.4068 -28.3298 -4.83402 1.42619 77.4177 -7.15504 -3.24297 12.077 -3.10917 7.47069 0.0294184 8.42176 -90.5343 10.0292 -0.184427 -1.04596 -1.64215 -0.230294 -1.03684 -24.1738 0.138412 -1.05304 -4.16117 0.138423 -1.05304 88.966 -31.6743 -108.129 38.3951 -7.40648 -0.188932 2.51967 -26.1375 -16.1016 -20.4354 0.0291917 -9.06642 -85.8852 -50.7346 85.0109 -23.1974 13.4332 -14.5779 4.59532 10.8215 -13.1253 -2.91988 -0.0673802 -8.9474 13.2332 -4.21868 -2.36943 0.100767 -3.50735 -0.633608 
-230.869 96.6213 -197.986 97.2681 -36.1829 93.4443 -174.814 21.0554 91.5282 -58.7515 5.85824 2.29893 65.7932 4.01877 4.96549 23.1409 4.8675 -6.81901 171.877 0.702403 92.4932 -26.0771 -8.76131 0.263381 78.1735 -7.25594 -4.34306 13.0156 -2.91954 7.15154 0.580327 8.3644 -90.1466 10.148 1.08958 -0.383459 -1.52256 1.07167 -0.431053 -24.0614 1.15446 -0.0382265 -4.04873 1.15445 -0.0382293 89.0729 -30.4082 -108.425 36.1685 -8.64127 -4.54853 1.50117 -24.9739 -18.0433 -21.7003 0.28894 -10.2033 -85.0329 -51.0757 86.3298 -22.8858 10.9629 -9.92242 5.04487 7.19636 -15.2447 -0.731211 -0.140801 -7.87936 9.8505 -4.71406 -1.28379 1.16858 -4.35976 -1.99299 
-226.441 96.7484 -194.209 97.0804 -39.1417 92.3108 -176.257 23.6417 89.0004 -41.6201 3.7071 -0.308792 62.8397 2.90513 4.6887 26.3815 2.16757 -3.27784 171.468 -2.84812 90.5739 -24.0145 -14.0214 -0.684237 76.8173 -7.13792 -6.95577 17.4869 -2.83868 7.15168 1.02114 8.4443 -89.9342 9.98681 2.06507 -0.0391882 -1.68251 2.06134 -0.130086 -24.2301 1.98134 0.583509 -4.21745 1.98131 0.583503 88.8186 -29.1493 -109.45 31.8717 -10.3205 -10.1624 0.909678 -27.4657 -19.9678 -25.6589 0.13392 -8.93139 -84.69 -52.9305 87.0631 -20.7269 9.86561 -6.37228 5.1931 5.60201 -17.3991 -1.28286 -0.128007 -8.31068 8.88401 -4.53591 0.633735 0.937936 -4.63777 -3.03112 
-221.628 95.8346 -190.136 96.7352 -41.7464 91.8506 -178.747 22.48 88.2889 -18.5113 2.08179 -1.32765 60.3376 2.19338 2.53655 24.1265 1.62833 -2.12309 170.846 -8.16766 89.113 -21.1724 -15.3497 -1.35832 80.6482 -9.35569 -6.47083 18.2584 -3.15455 7.8405 1.28331 8.45625 -89.79 9.96081 2.65311 0.199479 -1.70743 2.65932 0.0824314 -24.262 2.47043 0.988105 -4.24932 2.47044 0.988112 88.3947 -28.5415 -110.562 27.213 -10.5779 -15.9911 -0.427547 -28.6342 -19.9129 -27.1227 -0.00322364 -8.2445 -84.261 -54.1665 87.8254 -19.6937 9.18862 -2.89123 4.71699 4.17631 -17.1633 -1.62919 -0.118543 -8.64759 8.76571 -4.10774 2.14508 0.743034 -4.55535 -3.70647 
-216.451 94.2484 -185.588 97.0148 -44.7526 92.486 179.849 23.0955 88.8922 -7.37301 0.565601 -2.31715 62.1601 2.39471 2.21052 23.6161 -1.13163 2.18687 169.92 -12.5318 87.7145 -21.6479 -18.6773 -1.79309 81.6119 -10.4357 -7.20518 21.315 -2.86209 7.34186 1.5645 8.47156 -89.74 9.92943 3.23629 0.252428 -1.73748 3.24427 0.109585 -24.3014 3.01067 1.21426 -4.28877 3.01069 1.21426 87.8509 -28.4624 -111.685 23.8335 -9.29559 -20.3355 -1.48598 -28.9029 -21.5906 -27.2384 0.140952 -8.98376 -83.9255 -55.4645 88.4408 -19.5114 9.10531 -0.515704 3.57409 2.70218 -14.3579 -2.18731 -0.0974165 -8.42676 8.71971 -3.63173 3.40407 0.871165 -4.36949 -3.92829 
-210.477 92.9535 -180.34 99.0454 -48.0272 94.2351 -178.847 21.5875 88.8298 -7.55675 0.0707778 -2.84862 54.8571 -0.249736 0.00820367 22.2058 -0.314747 1.06532 167.175 -18.1034 83.8518 -21.2942 -23.0497 -2.04145 79.765 -10.2059 -6.67384 28.8572 -3.28869 8.87217 1.82007 8.56497 -89.6789 9.74061 3.77343 0.339623 -1.92489 3.78474 0.172969 -24.4988 3.4967 1.45934 -4.48612 3.4967 1.45934 87.7369 -28.1258 -112.071 23.6304 -7.32617 -23.4085 -4.17938 -31.034 -22.1884 -25.8464 0.454355 -11.2444 -83.2324 -57.5021 89.6044 -18.8016 9.01885 0.427419 2.63788 3.02691 -9.79474 -2.82152 -0.0703993 -9.52117 9.61978 -3.12565 4.01465 0.832771 -4.03675 -4.0264 
-203.908 92.6737 -174.571 99.271 -50.815 92.6311 -177.978 23.642 86.2695 -18.838 5.32617 -2.56455 55.6952 -0.873725 0.0519637 13.6666 -1.68034 3.29858 164.786 -19.4772 78.8319 -24.5498 -26.3394 -3.85253 73.566 -7.478 -6.68085 38.6474 -3.74209 11.6821 1.97506 8.50076 -89.2892 9.85531 4.25891 1.06762 -1.80894 4.30176 0.878815 -24.3862 3.74099 2.29973 -4.37356 3.74098 2.29971 87.5618 -28.6088 -112.194 26.0722 -7.64947 -23.7381 -5.7101 -27.9293 -23.1393 -25.3365 0.392222 -10.5722 -82.9449 -57.878 90.0358 -18.9691 7.53074 0.768158 3.02549 6.48077 -6.12051 -2.30589 -0.0913152 -5.73387 11.4943 -3.13348 2.53644 -0.749961 -3.70193 -4.54173 
-197.384 93.3881 -168.624 100.288 -51.9321 91.4855 -176.479 22.9293 83.8311 -30.0549 6.44454 -4.01434 59.324 0.248885 2.73896 19.9727 -0.140499 0.950581 164.917 -17.2975 76.0871 -34.8646 -26.7575 -7.09279 62.8702 -1.64481 -3.63897 37.0037 -3.78978 11.5596 1.95103 8.44552 -88.9575 9.95064 4.36209 1.7127 -1.71386 4.43319 1.51875 -24.284 3.64568 2.94552 -4.2713 3.64566 2.94551 87.8905 -28.9117 -111.4 28.9534 -11.3363 -21.9288 -2.92593 -27.5364 -23.29 -27.8427 0.90953 -12.3127 -83.7375 -56.4453 88.8029 -20.6261 6.81855 0.513384 2.43816 2.42815 -2.74349 -3.66106 -0.0495747 -8.2199 11.5104 -3.28916 0.429448 -1.15703 -3.333 -4.19975 
-191.838 94.1929 -163.747 100.469 -53.192 90.7821 -175.89 19.3982 82.4779 -33.4771 5.63985 -4.78903 65.4838 2.95125 3.97666 20.4519 0.357139 0.219462 168.224 -9.45133 75.1854 -49.7704 -27.2161 -7.96832 52.6312 2.72137 0.783955 25.3064 -2.90766 7.75307 1.7447 8.39348 -88.811 10.0495 4.01804 2.027 -1.6165 4.10332 1.84799 -24.1739 3.22327 3.14128 -4.16124 3.22326 3.14128 87.8992 -29.2189 -111.243 30.6912 -16.0859 -20.0723 -1.94418 -28.9282 -23.2976 -24.8871 0.726977 -12.7143 -84.0444 -55.2475 88.2495 -21.4752 6.43041 -2.23212 2.82125 3.48742 -2.22659 -2.30507 -0.0893287 -6.96622 12.3279 -2.81362 -1.34947 -3.25951 -2.37044 -3.60725 
-187.004 95.1508 -159.298 99.8484 -54.3348 90.8608 -177.286 15.3793 82.0547 -33.5331 2.39378 -4.20732 70.7854 4.98179 3.53427 19.5272 0.902415 -0.519945 172.832 -0.967249 76.9281 -60.0737 -31.6912 -7.80353 57.8968 0.345274 -5.88233 22.5567 -3.50483 8.8729 1.41729 8.37812 -88.9454 10.0891 3.30454 1.8175 -1.57871 3.38132 1.67019 -24.1265 2.6057 2.72675 -4.11381 2.60569 2.72674 87.9207 -28.9847 -111.307 32.812 -18.5737 -16.7582 -2.86585 -31.0859 -25.1629 -25.4395 0.334247 -10.7979 -84.5432 -54.6102 87.4684 -20.7692 7.67758 -7.52822 2.68324 4.5303 -3.22397 -1.06286 -0.112994 -6.22255 11.6384 -1.46294 -2.10168 -2.35338 -0.912283 -2.46767 
-182.782 96.2037 -154.775 100.095 -55.865 93.6427 -177.442 10.0918 83.9528 -31.7613 1.5763 -3.78995 74.0436 6.05207 3.90475 20.0803 -0.388996 1.27594 177.046 6.63486 81.2617 -61.2764 -22.2118 -6.58159 70.6841 -6.29484 -6.13431 15.9605 -3.41911 8.25187 1.05714 8.38032 -89.3237 10.101 2.41465 1.14055 -1.56814 2.46251 1.03312 -24.1121 1.96026 1.81364 -4.09948 1.96027 1.81364 87.7832 -29.604 -111.299 35.6014 -17.9157 -11.7523 -2.64039 -29.2043 -25.403 -26.3247 0.259357 -9.81438 -84.8251 -52.9843 86.8722 -19.7572 8.57706 -12.7623 2.8766 4.95952 -5.5172 1.15547 -0.137702 -5.90146 10.0563 0.65448 -3.8786 -1.60948 1.51354 -0.150614 
-178.502 97.2029 -149.968 98.2175 -55.6842 94.5817 -177.999 4.59294 85.4417 -27.5347 0.452874 -2.18888 76.0216 6.25627 1.84536 21.8277 -0.766 1.72053 178.311 14.8791 85.7613 -54.9154 -12.4887 -5.08366 73.8157 -7.32264 -1.62888 14.7907 -1.54278 4.5423 0.491678 8.31918 -89.7382 10.2331 1.09928 0.426045 -1.43748 1.11698 0.37723 -23.9747 0.920403 0.736731 -3.96209 0.920415 0.736739 88.1526 -29.9738 -110.412 37.6878 -14.9148 -6.59262 -2.38282 -29.7306 -24.077 -24.6897 0.329037 -10.6105 -85.1099 -51.7724 86.298 -17.849 7.99023 -17.4792 3.9882 5.25429 -9.4535 2.55555 -0.188096 -6.69561 8.45459 3.10613 -4.92837 -1.30808 4.08625 1.27305 
-174.183 97.163 -144.988 95.2193 -55.2136 94.0472 -177.712 -0.213131 86.5838 -24.9152 -0.643635 -1.34824 79.3447 6.59727 -1.87292 22.4733 0.081891 0.416917 177.732 21.5575 89.3815 -42.874 -13.1932 -3.2805 71.3779 -6.39335 -3.08197 19.178 -1.63821 4.68459 -0.0554742 8.25969 -90.0073 10.3543 -0.113802 -0.00448381 -1.31667 -0.113885 0.000527547 -23.852 -0.107201 -0.0384724 -3.83932 -0.107197 -0.0384777 89.0406 -30.6949 -108.369 38.8213 -11.0524 -1.66899 -1.63999 -27.4618 -22.9358 -22.3308 0.505865 -11.8967 -85.4104 -47.6989 85.3018 -18.5221 5.97115 -21.2299 6.29039 5.62348 -14.5224 -0.629396 -0.148579 -8.46449 8.70241 4.8848 -7.86422 -2.01968 6.45313 4.30894 
-169.432 95.923 -139.633 91.7202 -55.1513 91.8473 -177.525 -4.22935 87.1003 -22.232 -0.618761 -1.30082 82.6174 7.35355 -1.41787 23.0446 0.495893 -0.257674 177.516 27.8522 91.5375 -30.3537 -16.3476 -1.86396 67.9451 -4.75622 -2.64408 19.0503 -1.26396 3.88433 -0.467457 8.26427 -90.155 10.3445 -1.00209 -0.220929 -1.32605 -1.01084 -0.176632 -23.8636 -0.889359 -0.511918 -3.85093 -0.889367 -0.511911 89.7427 -30.5482 -107.056 39.5301 -6.13553 3.90903 -1.87919 -25.7001 -22.4705 -24.8497 0.558155 -11.1351 -85.1357 -45.5779 85.4209 -15.703 5.40302 -27.2833 6.2315 3.41103 -17.7347 0.671158 -0.196709 -8.46615 12.5268 6.12081 -9.16995 -4.53703 8.11195 5.02854 
-164.282 93.6264 -133.776 87.891 -54.0475 89.0518 -177.556 -7.88545 87.111 -21.5348 -1.14441 -0.790818 86.8806 7.82843 -3.55171 23.8556 -0.251207 0.813825 176.9 33.5006 93.0477 -20.2348 -11.9646 -0.547578 66.8598 -4.4409 -1.72481 17.0456 -1.55319 4.52045 -0.802712 8.26021 -90.2407 10.3516 -1.7093 -0.32938 -1.3182 -1.72211 -0.253816 -23.8606 -1.53128 -0.827977 -3.84796 -1.53125 -0.827972 89.4337 -31.2804 -107.378 38.9736 -0.525225 10.5382 -1.72873 -22.3525 -21.8409 -25.5514 0.661242 -10.8772 -85.3133 -44.6544 85.0006 -13.6716 2.00312 -33.4142 8.39089 5.05475 -20.9319 0.769132 -0.239349 -9.79313 16.3724 6.37119 -10.7116 -5.3822 8.99412 6.07981 
-158.631 90.4082 -127.214 84.7839 -51.2707 86.5764 -176.399 -12.2399 88.3093 -21.2397 1.25113 -1.03138 91.1227 9.62317 -4.47159 25.7358 0.31264 -0.226686 176.492 39.9517 93.1365 -18.5376 -10.7947 -0.0525257 65.8368 -4.28271 -4.0133 19.1265 -2.70644 6.90021 -1.10587 8.37579 -90.3765 10.1172 -2.37517 -0.548961 -1.55165 -2.39702 -0.44384 -24.1002 -2.10034 -1.23768 -4.08752 -2.10036 -1.23769 89.1526 -31.905 -107.681 38.0277 2.07932 16.5134 -1.78528 -22.5724 -21.153 -26.1013 0.415588 -9.59048 -85.8817 -43.8458 83.953 -15.7701 -1.16888 -39.4244 10.9587 6.19798 -24.8812 6.2471 -0.395653 -8.32805 23.3392 5.84897 -11.6156 -7.23062 9.26701 6.9511 
-152.16 87.2409 -119.554 82.4913 -46.6039 85.5047 -172.643 -18.5895 93.2167 -17.1394 10.8287 -1.84475 89.548 11.6605 -1.54797 33.0413 -0.161764 -0.0156985 175.724 48.7379 91.922 -33.8775 -13.1389 0.322086 66.8046 -3.78367 -1.2356 18.5238 -1.00934 3.40953 -1.42894 8.53882 -90.7242 9.78009 -3.17614 -1.18475 -1.88744 -3.22519 -1.0437 -24.4417 -2.67327 -2.08497 -4.42902 -2.67326 -2.08496 89.9904 -31.6791 -106.15 38.0622 4.49316 21.3919 -3.00595 -23.3023 -23.3737 -24.3835 0.766907 -11.8972 -86.9601 -42.4224 81.9428 -17.0974 0.333431 -42.9852 13.8253 8.99179 -30.4434 3.09785 -0.335969 -9.65322 32.8658 4.90862 -10.7028 -10.4176 8.71846 6.95267 
